Coordinates
version=1
nRows=21
nColumns=22
inDegrees=yes

Units are S.I. units (second, meters, Newtons, ...)
If the header above contains a line with 'inDegrees', this indicates whether rotational values are in degrees (yes) or radians (no).

endheader
time	pelvis_tilt	pelvis_list	pelvis_rotation	pelvis_tx	pelvis_ty	pelvis_tz	hip_flexion_r	hip_adduction_r	hip_rotation_r	knee_angle_r	ankle_angle_r	subtalar_angle_r	hip_flexion_l	hip_adduction_l	hip_rotation_l	knee_angle_l	ankle_angle_l	subtalar_angle_l	lumbar_extension	lumbar_bending	lumbar_rotation
      3.25000000	      4.37080437	      0.16433949	     -3.83797353	      0.65648985	      0.92770925	      0.08096657	     20.00895101	     -0.36605529	     -1.80502027	    -32.95239998	     -1.26046877	      3.22290640	     -1.79003010	      2.82649090	    -13.00485412	    -19.31744619	     10.01195601	     -3.15011149	     -9.28351454	     -5.91627513	     -3.76350896
      3.26000000	      4.33691554	      0.19974153	     -3.55635789	      0.66377648	      0.92693258	      0.08115107	     19.59151035	     -0.39441177	     -2.33629802	    -29.63899345	     -1.39745126	      3.22724638	     -2.14504879	      2.86013678	    -12.75379719	    -19.49695977	     10.28928890	     -3.39785604	     -9.26770201	     -6.02141308	     -3.91012377
      3.27000000	      4.36348944	      0.24908362	     -3.30499744	      0.67114179	      0.92619163	      0.08143301	     19.05890400	     -0.40881202	     -2.87345430	    -26.37218969	     -1.57506368	      3.28168867	     -2.57017961	      2.90256328	    -12.53929020	    -19.68244089	     10.58437573	     -3.60496037	     -9.29975737	     -6.14679829	     -4.02261622
      3.28000000	      4.43786397	      0.31849249	     -3.09613629	      0.67860634	      0.92548554	      0.08182944	     18.44145681	     -0.40797804	     -3.40217352	    -23.20678714	     -1.74520581	      3.40823512	     -3.06798830	      2.96196645	    -12.36785655	    -19.84408680	     10.86219985	     -3.73089721	     -9.35793033	     -6.29761511	     -4.07617834
      3.29000000	      4.44368418	      0.37697405	     -2.89430879	      0.68613404	      0.92465918	      0.08232695	     17.89469811	     -0.36511660	     -3.98395783	    -20.22222466	     -2.03426614	      3.56115782	     -3.48460037	      2.98127211	    -12.25468613	    -20.03666109	     11.16778719	     -3.75686678	     -9.31226081	     -6.42855828	     -4.14204084
      3.30000000	      4.52880942	      0.44468750	     -2.73571714	      0.69373446	      0.92394359	      0.08297030	     17.25763185	     -0.29058136	     -4.49457278	    -17.44531078	     -2.25820442	      3.80676018	     -4.01246286	      3.00668584	    -12.16459136	    -20.19603286	     11.43225942	     -3.69066394	     -9.33676282	     -6.58021609	     -4.14319364
      3.31000000	      4.53893945	      0.49982537	     -2.60873133	      0.70139570	      0.92313750	      0.08372913	     16.73464907	     -0.16926168	     -4.97725928	    -14.96492248	     -2.59277243	      4.04076263	     -4.47562567	      3.00235946	    -12.11725192	    -20.33718482	     11.69470060	     -3.57745227	     -9.24722398	     -6.70740958	     -4.12184204
      3.32000000	      4.61947069	      0.55420301	     -2.51564892	      0.70909718	      0.92244660	      0.08462919	     16.16000004	     -0.01870869	     -5.31756753	    -12.79977660	     -2.80365483	      4.38201788	     -5.02832276	      2.98935212	    -12.08199296	    -20.46394864	     11.90108543	     -3.35334592	     -9.22504736	     -6.84264841	     -4.05673128
      3.33000000	      4.64302823	      0.60002447	     -2.45757195	      0.71683067	      0.92170870	      0.08564274	     15.70220128	      0.15992356	     -5.53732572	    -11.01665894	     -3.05264130	      4.69176105	     -5.52841570	      2.95707030	    -12.06294377	    -20.58138502	     12.08673950	     -3.10558943	     -9.11809473	     -6.96022972	     -3.96629301
      3.34000000	      4.64597828	      0.64116885	     -2.43337680	      0.72458714	      0.92097796	      0.08675989	     15.32321444	      0.35145040	     -5.59446297	     -9.63532133	     -3.26777582	      4.97075774	     -6.00918125	      2.91376862	    -12.04608415	    -20.69947922	     12.23036145	     -2.83253687	     -8.97242439	     -7.06750188	     -3.85083013
      3.35000000	      4.61500017	      0.67905175	     -2.44687204	      0.73237344	      0.92024452	      0.08797275	     15.04274664	      0.54658011	     -5.48357941	     -8.66988881	     -3.47259799	      5.16883211	     -6.45390066	      2.86380714	    -12.03337205	    -20.82215999	     12.33848862	     -2.56580296	     -8.77209012	     -7.16287763	     -3.71994255
      3.36000000	      4.56126422	      0.72029269	     -2.48400079	      0.74014263	      0.91951798	      0.08926788	     14.85140196	      0.72910386	     -5.20623578	     -8.11508000	     -3.63756430	      5.26621917	     -6.84855104	      2.81361469	    -11.97818889	    -20.99459233	     12.41109360	     -2.31970502	     -8.54206675	     -7.25833058	     -3.56551464
      3.37000000	      4.50245831	      0.73676162	     -2.55414720	      0.74798874	      0.91884215	      0.09062957	     14.70816859	      0.92819218	     -4.80483545	     -7.92243362	     -3.78697659	      5.27410006	     -7.22922926	      2.73676285	    -11.93287626	    -21.19480519	     12.43783517	     -2.03919048	     -8.28777152	     -7.31070034	     -3.40684703
      3.38000000	      4.42803723	      0.73070531	     -2.64101930	      0.75587445	      0.91820460	      0.09205997	     14.62680081	      1.14078705	     -4.30949298	     -8.05734731	     -3.96450370	      5.14932218	     -7.56800266	      2.63153752	    -11.86669459	    -21.44874472	     12.43241225	     -1.76093618	     -8.00760337	     -7.32901396	     -3.26306966
      3.39000000	      4.34415590	      0.69037662	     -2.74285687	      0.76382001	      0.91762031	      0.09354332	     14.58594496	      1.38139525	     -3.79274370	     -8.44781134	     -4.15891847	      4.82195060	     -7.85633410	      2.48482842	    -11.78620834	    -21.78933915	     12.37978326	     -1.39462801	     -7.70571055	     -7.29930350	     -3.09811599
      3.40000000	      4.25805479	      0.62231466	     -2.84765357	      0.77181279	      0.91712543	      0.09506031	     14.56327921	      1.64239867	     -3.26627723	     -9.01060369	     -4.43849315	      4.34297652	     -8.10191443	      2.30655081	    -11.67820031	    -22.20801191	     12.31241840	     -1.06347607	     -7.39596265	     -7.22728742	     -2.98338426
      3.41000000	      4.19073572	      0.50675379	     -2.95859762	      0.77983188	      0.91676412	      0.09662118	     14.51921644	      1.94624128	     -2.76056701	     -9.66120828	     -4.80346178	      3.81644800	     -8.29819033	      2.06826296	    -11.57966534	    -22.76416143	     12.21076373	     -0.77220383	     -7.10891463	     -7.09593153	     -2.86890871
      3.42000000	      4.13896154	      0.34398963	     -3.05064470	      0.78789396	      0.91656491	      0.09817884	     14.45714943	      2.28224521	     -2.38580582	    -10.36216914	     -5.23466452	      3.15801075	     -8.44695795	      1.77254440	    -11.44602127	    -23.43799286	     12.01318683	     -0.43012423	     -6.84134246	     -6.90308572	     -2.78998852
      3.43000000	      4.11394819	      0.13400378	     -3.12114975	      0.79597717	      0.91655571	      0.09972761	     14.34701406	      2.64835334	     -2.11703463	    -11.05452574	     -5.70593807	      2.50165819	     -8.53898073	      1.41317806	    -11.30415502	    -24.26521668	     11.72084527	     -0.09259472	     -6.61240722	     -6.64846794	     -2.76252407
      3.44000000	      4.11647067	     -0.09787078	     -3.16616523	      0.80406064	      0.91673239	      0.10122938	     14.19509403	      3.01231114	     -1.96260913	    -11.73818038	     -6.10753567	      1.77124935	     -8.56894583	      1.01870613	    -11.14874994	    -25.24430657	     11.30849023	      0.32663750	     -6.42446105	     -6.35899516	     -2.80879134
      3.45000000	      4.13860913	     -0.37405233	     -3.17158899	      0.81211670	      0.91709511	      0.10269238	     13.96418318	      3.39812247	     -1.90999283	    -12.31513895	     -6.52569562	      1.24981957	     -8.49694908	      0.55329224	    -10.97567048	    -26.43414136	     10.78768452	      0.67487743	     -6.27468701	     -6.01958485	     -2.86295615
